<?xml version="1.0" encoding="UTF-8" standalone="no"?>
<!-- Created with Inkscape (http://www.inkscape.org/) -->

<svg
   version="1.1"
   id="svg2"
   xml:space="preserve"
   width="1066.6667"
   height="1066.6667"
   viewBox="0 0 1066.6667 1066.6667"
   sodipodi:docname="1788.eps"
   xmlns:inkscape="http://www.inkscape.org/namespaces/inkscape"
   xmlns:sodipodi="http://sodipodi.sourceforge.net/DTD/sodipodi-0.dtd"
   xmlns="http://www.w3.org/2000/svg"
   xmlns:svg="http://www.w3.org/2000/svg"><defs
     id="defs6" /><sodipodi:namedview
     id="namedview4"
     pagecolor="#ffffff"
     bordercolor="#666666"
     borderopacity="1.0"
     inkscape:pageshadow="2"
     inkscape:pageopacity="0.0"
     inkscape:pagecheckerboard="0" /><g
     id="g8"
     inkscape:groupmode="layer"
     inkscape:label="ink_ext_XXXXXX"
     transform="matrix(1.3333333,0,0,-1.3333333,0,1066.6667)"><g
       id="g10"
       transform="scale(0.1)"><path
         d="M 0,8000 H 8000 V 0 H 0 v 8000"
         style="fill:#ffffff;fill-opacity:1;fill-rule:evenodd;stroke:none"
         id="path12" /><path
         d="m 2875.13,5287.59 v 334.77 l 562.46,324.71 97.85,56.53 -105.28,-1113.75 z m 292.95,-1133.21 -292.95,169.04 v 765.72 l 912.27,-653.66 z m 1113.07,-317.93 -281.2,-162.39 -562.36,324.71 -97.35,56.2 1012.77,460.3 z m 843.62,853.56 v -366.59 l -562.36,-324.65 -108.43,-62.57 119.39,1132.81 z m -1124.82,1581.72 562.46,-324.66 95.62,-55.24 -1015,-461.37 71.01,676.31 z m 1124.82,-1386.4 -906.36,622.79 617.71,280.87 288.65,-166.63 v -649.47 -87.56"
         style="fill:#50aee6;fill-opacity:1;fill-rule:evenodd;stroke:none"
         id="path14" /><path
         d="m 5754.83,3193.17 c 30.03,0 50.61,-18.5 50.61,-42.27 0,-46.52 -51.55,-90.98 -184.86,-112.61 9.28,95.06 67.1,154.88 134.25,154.88 z m 98.2,-270.63 c -73.42,-37.3 -128.11,-55.8 -164.29,-55.8 -49.66,0 -71.3,38.24 -68.16,88.85 198.34,28.96 297.48,98.19 297.48,208.74 0,67.2 -58.88,123.96 -150.81,123.96 -76.44,0 -139.46,-26.84 -190.18,-81.64 -49.53,-54.79 -74.36,-132.24 -74.36,-234.51 0,-127.16 66.2,-203.6 177.76,-203.6 51.66,0 115.74,20.7 192.19,62.02 z m -688.23,-154 c 78.62,0 142.7,28.97 193.31,86.79 50.6,57.81 76.43,132.3 76.43,222.1 0,136.44 -72.35,210.86 -200.52,210.86 -78.44,0 -143.47,-28.96 -194.2,-86.79 -50.6,-57.81 -75.48,-132.23 -75.48,-222.14 0,-136.39 72.36,-210.82 200.46,-210.82 z m 10.35,101.32 c -60.95,0 -96.01,39.2 -94.95,114.69 0,57.82 13.31,106.36 41.21,144.6 27.91,38.31 62.01,57.93 102.27,57.93 60.95,0 95.12,-39.31 95.12,-114.68 -0.95,-57.93 -14.42,-106.46 -42.34,-144.71 -27.9,-38.26 -60.94,-57.83 -101.31,-57.83 z m -587.86,521.76 c 116.7,0 175.7,-62.96 175.7,-188.1 0,-206.61 -101.33,-322.36 -255.27,-322.36 -39.3,0 -78.5,3.14 -116.86,10.34 l 61.05,500.12 z m -245.92,112.62 -87.89,-708.8 c 73.36,-17.61 149.9,-26.9 228.41,-26.9 124.98,0 224.22,38.26 299.6,114.69 75.49,77.5 112.62,190.12 112.62,337.96 0,189.05 -97.07,283.05 -291.33,283.05 z m -205.66,-725.35 42.44,351.32 c 13.42,111.56 -24.77,167.31 -115.75,167.31 -60.94,0 -126.09,-30.87 -195.31,-94 l 11.41,88.96 -177.77,-10.34 -60.94,-503.25 h 175.57 l 31.04,259.4 c 58.88,60.89 99.14,90.86 122.96,90.86 21.75,0 30.98,-14.42 27.9,-44.39 l -37.18,-305.87 z m -599.2,0 42.33,351.32 c 13.47,111.56 -24.78,167.31 -115.75,167.31 -60.95,0 -126.09,-30.87 -195.32,-94 l 44.46,358.54 -177.76,-10.34 -94,-772.83 h 175.75 l 30.86,259.4 c 58.94,60.89 99.2,90.86 122.96,90.86 21.76,0 31.03,-14.42 28.02,-44.39 l -37.24,-305.87 z m -829.81,-10.35 c 87.85,0 158.08,27.91 211.82,84.72 53.74,56.87 80.63,129.22 80.63,219.14 0,144.59 -72.36,225.12 -218.02,225.12 -87.9,0 -158.08,-27.85 -211.81,-84.61 -53.74,-56.87 -80.64,-129.22 -80.64,-219.13 0,-144.72 72.36,-225.24 218.02,-225.24 z m 20.69,155.06 c -40.26,0 -60,26.79 -58.87,80.52 1.06,78.62 42.38,138.46 91.92,138.46 40.26,0 58.88,-26.79 57.93,-80.53 -1.07,-78.61 -41.38,-138.45 -90.98,-138.45 z m -521.76,-8.27 c -9.39,-69.29 -46.52,-120.96 -124.08,-183.91 l 133.31,-113.73 c 58.88,44.5 103.39,87.9 131.24,131.28 28.96,43.39 47.64,99.15 55.8,166.36 l 72.36,588.91 h -196.38 l -72.25,-588.91"
         style="fill:#3c4a55;fill-opacity:1;fill-rule:nonzero;stroke:none"
         id="path16" /><path
         d="m 5717.37,2330.89 c -4.08,0 -6.04,2.01 -6.04,6.09 v 79.29 L 5635,2572.89 c -0.95,1.74 -1.05,3.47 -0.33,5.21 1,1.78 2.4,2.68 4.53,2.68 h 41.48 c 4.32,0 7.34,-2.19 9.23,-6.38 l 49.21,-106.02 49.32,106.02 c 1.96,4.19 4.92,6.38 9.28,6.38 h 41.44 c 2.07,0 3.63,-0.9 4.41,-2.68 0.84,-1.74 0.73,-3.47 -0.11,-5.21 l -76.44,-156.62 v -79.29 c 0,-4.08 -2.06,-6.09 -6.14,-6.09 z m -263.14,106.8 h -77.11 v -101.44 c 0,-3.57 -1.79,-5.36 -5.7,-5.36 h -44.23 c -3.53,0 -5.26,1.79 -5.26,5.36 v 238.83 c 0,3.74 1.73,5.7 5.26,5.7 h 44.23 c 3.91,0 5.7,-1.96 5.7,-5.7 v -93.89 h 77.11 v 93.89 c 0,3.74 1.84,5.7 5.36,5.7 h 44.29 c 3.85,0 5.71,-1.96 5.71,-5.7 v -238.83 c 0,-3.57 -1.86,-5.36 -5.71,-5.36 h -44.29 c -3.52,0 -5.36,1.79 -5.36,5.36 z m -388.68,19.91 c 4.08,-0.45 8.61,-0.73 13.76,-0.96 5.08,-0.33 9.72,-0.45 13.7,-0.45 15.94,0 27,3.59 33.04,10.57 6.04,6.99 9.17,16.89 9.17,29.8 v 8.17 c 0,13.37 -3.13,23.38 -9.17,30.08 -6.04,6.55 -17.1,9.9 -33.04,9.9 -4.76,0 -9.46,-0.22 -14.21,-0.67 -4.76,-0.5 -9.17,-1.4 -13.25,-2.46 z m -40.37,119.94 c 10.35,2.67 21.64,4.52 34.11,5.7 12.53,1.28 25.21,1.84 38.01,1.84 31.88,0 54.92,-6.49 69.13,-19.29 14.09,-12.8 21.19,-31.87 21.19,-57.15 v -11.4 c 0,-13.36 -1.52,-24.99 -4.48,-35.12 -2.91,-10.12 -7.89,-18.51 -14.64,-25.32 -6.83,-6.89 -15.49,-12.03 -26.18,-15.61 -10.79,-3.52 -23.81,-5.25 -39.31,-5.25 -5.92,0 -12.19,0.1 -18.51,0.45 -6.48,0.39 -12.8,0.94 -18.95,1.56 v -80.97 c 0,-4.08 -2.07,-6.09 -6.04,-6.09 h -41.43 c -4.09,0 -6.05,2.01 -6.05,6.09 v 220.2 c 0,6.26 0.96,10.91 2.8,14.03 1.96,2.97 5.37,5.15 10.35,6.33 z M 4751.69,2422.7 h 56.42 l -28.24,114.58 z m 58.99,158.08 c 5.14,0 8.39,-2.35 9.56,-7.11 l 64.64,-235.57 c 0.45,-1.96 0.33,-3.58 -0.33,-4.98 -0.73,-1.51 -2.13,-2.23 -4.31,-2.23 h -43.5 c -4.08,0 -6.43,1.67 -7.21,5.03 l -10.68,43.16 h -77.84 l -10.62,-43.16 c -0.79,-3.36 -3.13,-5.03 -7.22,-5.03 h -43.5 c -2.18,0 -3.58,0.72 -4.31,2.23 -0.67,1.4 -0.89,3.02 -0.33,4.98 l 64.58,235.57 c 1.17,4.76 4.41,7.11 9.62,7.11 z m -354.84,-116.42 c 15.6,0 26.33,2.8 32.03,8.34 5.7,5.47 8.61,14.19 8.61,26.32 v 7.89 c 0,12.13 -2.91,20.86 -8.61,26.39 -5.7,5.49 -16.43,8.28 -32.03,8.28 -4.87,0 -9.63,-0.33 -14.38,-0.73 -4.69,-0.56 -9.12,-1.34 -13.08,-2.63 v -72.74 c 4.7,-0.45 9.45,-0.78 14.2,-0.9 4.7,-0.11 9.12,-0.22 13.26,-0.22 z m 59.82,-133.47 c -3.4,0 -6.31,0.61 -8.27,2.01 -2.07,1.28 -3.69,3.24 -4.87,5.93 l -39.31,82.03 h -3.18 c -4.42,0 -9.62,0.11 -15.32,0.21 -5.71,0.12 -11.18,0.35 -16.33,0.9 v -84.99 c 0,-4.08 -2.07,-6.09 -6.15,-6.09 h -43.17 c -4.14,0 -6.03,2.01 -6.03,6.09 v 220.2 c 0,6.26 0.94,10.91 2.79,14.03 1.89,2.97 5.36,5.15 10.34,6.33 10.24,2.67 21.93,4.52 35,5.7 13.09,1.28 26.07,1.84 38.87,1.84 16.43,0 30.36,-1.73 41.65,-5.2 11.3,-3.41 20.47,-8.49 27.46,-15.15 6.99,-6.65 12.02,-14.76 15.16,-24.21 3.12,-9.62 4.64,-20.47 4.64,-32.88 v -9.34 c 0,-16.39 -2.8,-30.25 -8.39,-41.66 -5.59,-11.51 -14.77,-20.23 -27.68,-26.5 l 48.25,-92.83 c 1.18,-2.34 1.18,-3.96 0.23,-4.92 -1.23,-1 -2.4,-1.5 -3.8,-1.5 z m -357.97,210.69 c -13.81,0 -24.99,-1.74 -33.73,-5.09 -8.72,-3.3 -15.48,-8.28 -20.57,-14.93 -4.91,-6.71 -8.39,-15.1 -10.12,-25.21 -1.84,-10.13 -2.68,-22.09 -2.68,-35.85 v -9.28 c 0,-13.53 0.94,-25.39 3.01,-35.51 2.02,-10.12 5.37,-18.5 10.01,-25.39 4.65,-6.81 10.79,-11.84 18.52,-15.2 7.76,-3.25 17.32,-4.98 28.73,-4.98 7.44,0 15.21,0.78 23.6,2.18 v 60.73 h -30.97 c -4.14,0 -6.16,1.95 -6.16,6.03 v 31.43 c 0,3.97 2.02,6.03 6.16,6.03 h 80.63 c 3.74,0 5.7,-2.06 5.7,-6.03 v -117.15 c 0,-5.48 -1.01,-9.67 -2.69,-12.8 -1.84,-3.13 -5.08,-5.26 -9.84,-6.49 -12.13,-2.79 -24.1,-4.7 -35.73,-5.81 -11.63,-1.06 -24.88,-1.57 -39.59,-1.57 -19.51,0 -36.06,2.8 -49.54,8.51 -13.7,5.7 -24.66,13.97 -33.05,24.65 -8.49,10.62 -14.64,23.54 -18.44,38.75 -3.87,15.04 -5.71,32.1 -5.71,50.83 v 12.91 c 0,20.14 2.06,37.91 6.04,53.07 4.08,15.26 10.57,28.13 19.51,38.42 8.95,10.34 20.53,18.11 34.79,23.37 14.31,5.31 31.53,7.88 51.77,7.88 11.97,0 24.11,-0.84 36.62,-2.68 12.48,-1.84 23.33,-3.97 32.6,-6.6 2.19,-0.72 3.53,-1.62 4.31,-2.58 0.79,-0.83 1.06,-2.12 1.06,-3.85 v -25.72 c 0,-3.58 -1.89,-5.2 -5.7,-4.98 -9.78,0.95 -19.24,1.62 -28.52,2.18 -9.39,0.4 -19.4,0.73 -30.02,0.73 z m -306.65,-80.35 c 0,28.35 -3.8,48.81 -11.19,61.4 -7.55,12.58 -20.35,18.95 -38.46,18.95 -18.06,0 -30.93,-6.37 -38.31,-18.95 -7.54,-12.59 -11.35,-33.05 -11.35,-61.4 v -10.74 c 0,-28.29 3.81,-48.75 11.35,-61.4 7.38,-12.58 20.25,-18.95 38.31,-18.95 18.11,0 30.91,6.37 38.46,18.95 7.39,12.65 11.19,33.11 11.19,61.4 z m -49.65,-134.54 c -36.63,0 -63.3,10.29 -80.02,30.99 -16.56,20.8 -24.94,51.15 -24.94,91.41 v 13.59 c 0,40.15 8.38,70.62 24.94,91.37 16.72,20.69 43.39,31.03 80.02,31.03 36.74,0 63.29,-10.34 80.01,-31.03 16.55,-20.75 25,-51.22 25,-91.37 v -13.59 c 0,-40.26 -8.45,-70.61 -25,-91.41 -16.72,-20.7 -43.27,-30.99 -80.01,-30.99 z m -219.98,254.09 c 4.3,0 6.49,-1.96 6.49,-6.04 v -31.43 c 0,-4.08 -2.19,-6.03 -6.49,-6.03 h -57.82 v -200.3 c 0,-4.08 -2.01,-6.09 -6.04,-6.09 h -43.17 c -4.08,0 -6.15,2.01 -6.15,6.09 v 200.3 h -57.81 c -4.31,0 -6.32,1.95 -6.32,6.03 v 31.43 c 0,4.08 2.01,6.04 6.32,6.04 z m -341.2,-119.55 c 0,28.35 -3.75,48.81 -11.3,61.4 -7.44,12.58 -20.24,18.95 -38.36,18.95 -18.06,0 -30.86,-6.37 -38.41,-18.95 -7.44,-12.59 -11.19,-33.05 -11.19,-61.4 v -10.74 c 0,-28.29 3.75,-48.75 11.19,-61.4 7.55,-12.58 20.35,-18.95 38.41,-18.95 18.12,0 30.92,6.37 38.36,18.95 7.55,12.65 11.3,33.11 11.3,61.4 z m -49.66,-134.54 c -36.68,0 -63.29,10.29 -79.96,30.99 -16.61,20.8 -24.99,51.15 -24.99,91.41 v 13.59 c 0,40.15 8.38,70.62 24.99,91.37 16.67,20.69 43.28,31.03 79.96,31.03 36.63,0 63.36,-10.34 80.02,-31.03 16.61,-20.75 25,-51.22 25,-91.37 v -13.59 c 0,-40.26 -8.39,-70.61 -25,-91.41 -16.66,-20.7 -43.39,-30.99 -80.02,-30.99 z m -298.09,111 h -77.11 v -101.44 c 0,-3.57 -1.84,-5.36 -5.7,-5.36 h -44.29 c -3.52,0 -5.37,1.79 -5.37,5.36 v 238.83 c 0,3.74 1.85,5.7 5.37,5.7 h 44.29 c 3.86,0 5.7,-1.96 5.7,-5.7 v -93.89 h 77.11 v 93.89 c 0,3.74 1.79,5.7 5.37,5.7 h 44.23 c 3.8,0 5.7,-1.96 5.7,-5.7 v -238.83 c 0,-3.57 -1.9,-5.36 -5.7,-5.36 h -44.23 c -3.58,0 -5.37,1.79 -5.37,5.36 z m -388.73,19.91 c 4.02,-0.45 8.61,-0.73 13.7,-0.96 5.14,-0.33 9.67,-0.45 13.75,-0.45 15.94,0 26.95,3.59 33.11,10.57 5.98,6.99 9,16.89 9,29.8 v 8.17 c 0,13.37 -3.02,23.38 -9,30.08 -6.16,6.55 -17.17,9.9 -33.11,9.9 -4.7,0 -9.45,-0.22 -14.2,-0.67 -4.81,-0.5 -9.23,-1.4 -13.25,-2.46 z m -40.38,119.94 c 10.23,2.67 21.65,4.52 34.17,5.7 12.47,1.28 25.17,1.84 37.97,1.84 31.87,0 54.91,-6.49 69.17,-19.29 14.09,-12.8 21.19,-31.87 21.19,-57.15 v -11.4 c 0,-13.36 -1.51,-24.99 -4.53,-35.12 -2.91,-10.12 -7.83,-18.51 -14.65,-25.32 -6.77,-6.89 -15.49,-12.03 -26.17,-15.61 -10.73,-3.52 -23.76,-5.25 -39.25,-5.25 -5.93,0 -12.19,0.1 -18.56,0.45 -6.44,0.39 -12.81,0.94 -18.96,1.56 v -80.97 c 0,-4.08 -2.02,-6.09 -6.1,-6.09 h -41.38 c -4.08,0 -6.04,2.01 -6.04,6.09 v 220.2 c 0,6.26 0.9,10.91 2.8,14.03 1.96,2.97 5.43,5.15 10.34,6.33 v 0"
         style="fill:#3c4a55;fill-opacity:1;fill-rule:nonzero;stroke:none"
         id="path18" /><path
         d="m 3547.41,5652.17 c -671.34,-450.58 -349.09,-1495.32 452.54,-1495.32 801.17,0 1124.26,1043.96 452.53,1495.32 -271.43,182.4 -633.65,182.29 -905.07,0 v 0"
         style="fill:#ffffff;fill-opacity:1;fill-rule:evenodd;stroke:none"
         id="path20" /><path
         d="m 3657.85,5486.38 c -507.45,-340.71 -263.76,-1130.36 342.1,-1130.36 605.63,0 849.82,789.16 342.04,1130.36 -205.11,137.89 -478.93,137.78 -684.14,0 v 0"
         style="fill:#d7d6d7;fill-opacity:1;fill-rule:evenodd;stroke:none"
         id="path22" /><path
         d="m 3727.02,5382.54 c -404.9,-271.76 -210.53,-901.83 272.93,-901.83 483.22,0 678.1,629.68 272.92,901.83 -163.66,110.04 -382.13,109.93 -545.85,0 v 0"
         style="fill:#57585a;fill-opacity:1;fill-rule:evenodd;stroke:none"
         id="path24" /><path
         d="m 3759.17,5334.34 c -357.26,-239.77 -185.7,-795.7 240.78,-795.7 426.36,0 598.3,555.48 240.83,795.7 -144.49,97.12 -337.18,97.02 -481.61,0 v 0"
         style="fill:#3d3d3d;fill-opacity:1;fill-rule:evenodd;stroke:none"
         id="path26" /><path
         d="M 3866.42,5173.47 C 3668.19,5040.39 3763.36,4732 3999.95,4732 c 236.52,0 331.92,308.16 133.59,441.47 -80.08,53.84 -187,53.73 -267.12,0 v 0"
         style="fill:#201d1b;fill-opacity:1;fill-rule:evenodd;stroke:none"
         id="path28" /><path
         d="m 3847.91,5054.08 c -93.66,62.85 -48.65,208.52 63.18,208.52 111.78,0 156.91,-145.55 63.08,-208.52 -37.86,-25.55 -88.35,-25.55 -126.26,0 v 0"
         style="fill:#b9babb;fill-opacity:1;fill-rule:evenodd;stroke:none"
         id="path30" /><path
         d="m 4107.81,4734.91 c -46.07,30.92 -23.87,102.61 31.15,102.61 55.01,0 77.15,-71.69 30.97,-102.61 -18.62,-12.58 -43.5,-12.58 -62.12,0 v 0"
         style="fill:#ffffff;fill-opacity:1;fill-rule:evenodd;stroke:none"
         id="path32" /></g></g></svg>
